# xmcd
#
# Track frame offsets: 
#        182
#        9567
#        20225
#        31125
#        40902
#        56260
#        63645
#        73795
#        84240
#        92357
#        105422
#        115687
#        126812
#        136375
#        147982
#        160992
#        169955
#        180210
#        190172
#        199910
#        210352
#        219302
#        228460
#        239677
#        251580
#
# Disc length: 3557 seconds
#
# Revision: 13
# Processed by: cddbd v1.5.2PL0 Copyright (c) Steve Scherf et al.
# Submitted via: ExactAudioCopyFreeDBPlugin 1.0
#
DISCID=580de319
DTITLE=Various Artist - The Doo Wop Boxes I, II, and III [Rhino box set
DTITLE=s]
DYEAR=1993
DGENRE=Rhythm and Blues
TTITLE0=The Boss-Tones - Mope-Itty Mope
TTITLE1=The Fascinators - Oh Rose Marie
TTITLE2=The Passions - Just to Be with You
TTITLE3=Little Anthony and The Imperials - Shimmy, Shimmy, Ko-Ko-Bop
TTITLE4=The Jesters - The Wind
TTITLE5=Maurice Williams and The Zodiacs - Stay
TTITLE6=The Capris - There's a Moon Out Tonight
TTITLE7=The Marcels - Blue Moon
TTITLE8=The Tokens - Tonight I Fell in Love
TTITLE9=Shep and The Limelites - Daddy's Home
TTITLE10=The Regents - Barbara-Ann
TTITLE11=The Edsels - Rama Lama Ding Dong
TTITLE12=The Velvets - Tonight (Could Be the Night)
TTITLE13=The Jive Five - My True Story
TTITLE14=The Halos - Nag
TTITLE15=The Earls - Lookin' for My Baby
TTITLE16=The Quotations - Imagination
TTITLE17=The Excellents - Coney Island Baby
TTITLE18=The Earls - Remember Then
TTITLE19=The Five Discs - Never Let You Go
TTITLE20=Randy and The Rainbows - Denise
TTITLE21=Vito and The Salutations - Unchained Melody
TTITLE22=The Marvelows - I Do
TTITLE23=The Capris - Morse Code of Love
TTITLE24=Johnny Maestro and The Brooklyn Bridge - My Juanita (live)
EXTD=
EXTT0=
EXTT1=
EXTT2=
EXTT3=
EXTT4=
EXTT5=
EXTT6=
EXTT7=
EXTT8=
EXTT9=
EXTT10=
EXTT11=
EXTT12=
EXTT13=
EXTT14=
EXTT15=
EXTT16=
EXTT17=
EXTT18=
EXTT19=
EXTT20=
EXTT21=
EXTT22=
EXTT23=
EXTT24=
PLAYORDER=
